<mxfile host="app.diagrams.net" modified="2024-02-25T15:46:23.749Z" agent="Mozilla/5.0 (Windows NT 10.0; Win64; x64) AppleWebKit/537.36 (KHTML, like Gecko) Chrome/121.0.0.0 Safari/537.36 Edg/121.0.0.0" version="22.1.21" etag="9vO9sXbmEj6uqjQQVVet" type="github">
  <diagram name="第 1 页" id="SN5jo8OmzqpJzp6iCEVq">
    <mxGraphModel>
      <root>
        <mxCell id="0" />
        <mxCell id="1" parent="0" />
      </root>
    </mxGraphModel>
  </diagram>
</mxfile>
